<?xml version="1.0" encoding="UTF-8"?>
<svg xmlns="http://www.w3.org/2000/svg" version="1.1" height="80" width="80">
 <defs>
  <linearGradient id="hicg_overlay_grad" gradientUnits="userSpaceOnUse" x1="39.9995" y1="5.1816" x2="39.9995" y2="58.8019">
   <stop offset="0" style="stop-color:#FFFFFF"/>
   <stop offset="1" style="stop-color:#000000"/>
  </linearGradient>
  <filter id="hicg_drop_shadow">
    <feOffset in="SourceAlpha" dx="0" dy="4"/>
    <feGaussianBlur stdDeviation="4"/>
	<feColorMatrix type="matrix" values="1 0 0 0 0  0 1 0 0 0  0 0 1 0 0  0 0 0 0.5 0" result="shadow"/>
    <feBlend in="SourceGraphic" in2="shadow" mode="normal"/>
  </filter>
 </defs>
 <g>
  <path id="hicg_background" fill="#3e3e51" d="M79,40c0,28.893-10.105,39-39,39S1,68.893,1,40C1,11.106,11.105,1,40,1S79,11.106,79,40z"/>
  <path id="hicg_highlight" fill="#fff" opacity="0.25" d="M39.999,1C11.105,1,1,11.106,1,40c0,28.893,10.105,39,38.999,39   C68.896,79,79,68.893,79,40C79,11.106,68.896,1,39.999,1z M39.999,78.025C11.57,78.025,1.976,68.43,1.976,40   c0-28.429,9.595-38.024,38.023-38.024c28.43,0,38.024,9.596,38.024,38.024C78.023,68.43,68.429,78.025,39.999,78.025z"/>
  <path id="hicg_overlay" opacity="0.4" fill="url(#hicg_overlay_grad)" d="M78.977,40c0,28.893-10.1,39-38.977,39S1.023,68.893,1.023,40c0-28.894,10.1-39,38.977-39S78.977,11.106,78.977,40z"/>
 </g>
<g xmlns:rdf="http://www.w3.org/1999/02/22-rdf-syntax-ns#" xmlns:cc="http://creativecommons.org/ns#" xmlns:dc="http://purl.org/dc/elements/1.1/" xmlns:sodipodi="http://sodipodi.sourceforge.net/DTD/sodipodi-0.dtd" xmlns:inkscape="http://www.inkscape.org/namespaces/inkscape" transform="translate(16.857142857143, 13) scale(0.077142857142857)" filter="url(#hicg_drop_shadow)">
  <metadata xmlns="http://www.w3.org/2000/svg" xmlns:rdf="http://www.w3.org/1999/02/22-rdf-syntax-ns#" xmlns:cc="http://creativecommons.org/ns#" xmlns:dc="http://purl.org/dc/elements/1.1/" id="metadata3032">
    <rdf:RDF>
      <cc:Work rdf:about="">
        <dc:title/>
        <dc:description/>
        <dc:subject>
          <rdf:Bag>
            <rdf:li/>
            <rdf:li>pointing</rdf:li>
            <rdf:li>finger</rdf:li>
            <rdf:li>icons</rdf:li>
            <rdf:li>hash</rdf:li>
            <rdf:li>hand</rdf:li>
            <rdf:li>mousecursor</rdf:li>
            <rdf:li>computer</rdf:li>
          </rdf:Bag>
        </dc:subject>
        <dc:publisher>
          <cc:Agent rdf:about="http://www.openclipart.org">
            <dc:title>Nathan Eady</dc:title>
          </cc:Agent>
        </dc:publisher>
        <dc:creator>
          <cc:Agent>
            <dc:title>Nathan Eady</dc:title>
          </cc:Agent>
        </dc:creator>
        <dc:rights>
          <cc:Agent>
            <dc:title>Nathan Eady</dc:title>
          </cc:Agent>
        </dc:rights>
        <dc:date/>
        <dc:format>image/svg+xml</dc:format>
        <dc:type rdf:resource="http://purl.org/dc/dcmitype/StillImage"/>
        <cc:license rdf:resource="http://web.resource.org/cc/PublicDomain"/>
        <dc:language>en</dc:language>
      </cc:Work>
      <cc:License rdf:about="http://web.resource.org/cc/PublicDomain">
        <cc:permits rdf:resource="http://web.resource.org/cc/Reproduction"/>
        <cc:permits rdf:resource="http://web.resource.org/cc/Distribution"/>
        <cc:permits rdf:resource="http://web.resource.org/cc/DerivativeWorks"/>
      </cc:License>
    </rdf:RDF>
  </metadata>
  <defs xmlns="http://www.w3.org/2000/svg" id="defs3"/>
  <sodipodi:namedview xmlns:sodipodi="http://sodipodi.sourceforge.net/DTD/sodipodi-0.dtd" xmlns:inkscape="http://www.inkscape.org/namespaces/inkscape" bordercolor="#666666" borderopacity="1.0" id="base" inkscape:cx="129.0999" inkscape:cy="439.85399" inkscape:pageopacity="0.0000000" inkscape:pageshadow="2" inkscape:window-height="748" inkscape:window-width="1360" inkscape:window-x="1364" inkscape:window-y="-3" inkscape:zoom="0.7" pagecolor="#ffffff" showgrid="false" inkscape:window-maximized="1" inkscape:current-layer="svg1"/>
  <g xmlns="http://www.w3.org/2000/svg" xmlns:sodipodi="http://sodipodi.sourceforge.net/DTD/sodipodi-0.dtd" id="g1546" transform="translate(-28.75000,41.12437)">
    <path d="M 279.62738,714.78635 C 282.17793,641.12370 236.39731,569.81106 217.50000,538.61218 C 181.82241,479.70957 122.64959,419.39798 80.000000,363.61218 C 70.404038,351.06063 65.213906,314.46122 83.750000,294.86218 C 102.35876,275.18631 131.27560,275.89131 148.75000,286.11218 C 197.52560,314.64131 214.59741,337.04047 248.75000,383.61218 C 260.43074,399.54047 283.69361,446.33827 283.75000,482.36218 L 283.75000,73.612182 C 283.75000,37.083480 318.15088,11.408427 353.75000,13.612182 C 389.34912,15.815937 418.51862,46.749972 418.75000,74.862182 L 421.25000,378.61218 C 420.15036,306.88035 427.53599,263.04390 460.51777,262.94276 C 493.48499,262.84167 507.30676,311.00596 508.75000,381.11218 C 507.30676,308.08929 518.20597,287.42184 552.71447,286.84441 C 587.22297,286.26698 596.73001,333.70111 597.50000,426.11218 C 597.56335,353.28445 615.02448,321.88700 631.25000,321.11218 C 647.47552,320.33736 688.12348,353.28946 688.38388,427.71752 L 688.75000,532.36218 C 688.86201,564.37654 642.18197,588.91256 641.90641,620.96053 L 641.09835,714.93801" id="path1544" sodipodi:nodetypes="cssssscszzczczczssss" style="fill:#ffffff;fill-opacity:1.0000000;fill-rule:evenodd;stroke:#000000;stroke-width:37.500000;stroke-linecap:butt;stroke-linejoin:round;stroke-miterlimit:4.0000000;stroke-opacity:1.0000000;"/>
  </g>
  <path xmlns="http://www.w3.org/2000/svg" xmlns:inkscape="http://www.inkscape.org/namespaces/inkscape" style="fill:#0000ff" d="m 648.78812,164.898 c -58.68851,0.0616 -164.16076,46.50374 -250.875,112.59375 -97.36334,74.20632 -134.23247,145.06754 -82.34375,158.25 51.88869,13.18247 172.88662,-36.26244 270.25,-110.46875 97.36335,-74.20631 134.23247,-145.06752 82.34375,-158.25 -5.67531,-1.44182 -12.16765,-2.13254 -19.375,-2.125 z m -32.46875,27.875 c 5.76588,-0.006 10.95975,0.53405 15.5,1.6875 41.51097,10.54599 12.01568,67.22871 -65.875,126.59375 -77.8907,59.36505 -174.67655,98.92097 -216.1875,88.375 -41.51098,-10.54597 -12.01567,-67.22869 65.875,-126.59375 69.37139,-52.872 153.73669,-90.0132 200.6875,-90.0625 z" id="path3000" inkscape:connector-curvature="0"/>
  <path xmlns="http://www.w3.org/2000/svg" xmlns:inkscape="http://www.inkscape.org/namespaces/inkscape" inkscape:connector-curvature="0" style="fill:#0000ff" d="M 330.10287,380.92649 C 303.70888,328.50797 214.87134,255.09705 116.89424,207.26676 6.8848661,153.56261 -72.985857,152.417 -61.478915,204.70282 c 11.506922,52.2858 109.995627,138.22341 220.005005,191.92761 110.00937,53.70418 189.88008,54.84977 178.37316,2.56394 -1.25857,-5.71874 -3.55498,-11.83052 -6.79638,-18.26788 z m -39.48183,-16.50515 c 2.59304,5.14991 4.4414,10.0337 5.44826,14.6087 9.20553,41.82866 -54.68544,40.90938 -142.69293,-2.05397 C 65.368863,334.01272 -13.416483,265.27379 -22.622027,223.44515 c -9.205549,-41.82865 54.685444,-40.90935 142.692947,2.05397 78.38167,38.26423 149.4349,96.98741 170.55012,138.92222 z" id="path3000-3"/>
  <rect xmlns="http://www.w3.org/2000/svg" style="fill:#0000ff" id="rect3039" width="37.142857" height="180" x="-61.444893" y="510.57211" transform="matrix(0.74314483,-0.6691306,0.6691306,0.74314483,0,0)"/>
  <rect xmlns="http://www.w3.org/2000/svg" style="fill:#0000ff" id="rect3039-6" width="37.142857" height="180" x="-546.63574" y="-226.42957" transform="matrix(-0.6691306,-0.74314483,0.74314483,-0.6691306,0,0)"/>
</g></svg>
